<?xml version="1.0" encoding="UTF-8"?>
<svg id="_レイヤー_2" data-name="レイヤー 2" xmlns="http://www.w3.org/2000/svg" viewBox="0 0 1646.37 298.96">
  <defs>
    <style>
      .cls-1 {
        fill: #627288;
        stroke-width: 0px;
      }
    </style>
  </defs>
  <g id="_レイヤー_1-2" data-name="レイヤー 1">
    <rect class="cls-1" width="167.06" height="50.66" rx="16" ry="16"/>
    <rect class="cls-1" x="63.33" y="82.77" width="193.89" height="50.66" rx="16" ry="16"/>
    <rect class="cls-1" x="63.33" y="165.53" width="193.89" height="50.66" rx="16" ry="16"/>
    <rect class="cls-1" y="248.3" width="167.06" height="50.66" rx="16" ry="16"/>
    <g>
      <path class="cls-1" d="M411.31,285.26c-2.25,0-4.4-.95-5.91-2.61s-2.26-3.89-2.05-6.13c.38-4.15.55-8.71.55-15.25-.27-4.93-.17-9.36-.08-13.64.04-1.94.08-3.78.08-5.53l-.8-101.36c-.31-25.03-.38-30.25-.95-36.03-.22-2.24.5-4.46,2-6.14,1.5-1.67,3.64-2.64,5.88-2.66,0,0,33.08-.3,33.1-.3,2.23,0,4.35.93,5.87,2.56,1.53,1.65,2.3,3.87,2.11,6.12-.92,10.86-1.53,25.52-1.85,44.82l-1.15,128.21c-.04,4.39-3.61,7.93-8,7.93h-28.8ZM425.97,74.14c-15.85,0-29.24-13.57-29.24-29.64s13.02-30.04,29.64-30.04,30.04,13.19,30.04,30.04-13.37,29.64-30.43,29.64Z"/>
      <path class="cls-1" d="M501.7,285.26c-2.9,0-5.57-1.57-6.98-4.09-1.41-2.53-1.35-5.62.16-8.09l84.78-138.13-68.06-.34c-2.21-.01-4.32-.94-5.82-2.56-1.5-1.62-2.27-3.79-2.12-6l1.69-24.22c.29-4.19,3.78-7.44,7.98-7.44h127.91c2.9,0,5.57,1.57,6.99,4.1,1.41,2.53,1.34,5.63-.18,8.1l-85.5,138.48h74.8c2.2,0,4.31.91,5.82,2.51,1.51,1.6,2.3,3.76,2.17,5.95l-1.41,24.19c-.25,4.23-3.75,7.54-7.99,7.54h-134.25Z"/>
      <path class="cls-1" d="M743.24,290.82c-19.37,0-36.08-6.76-48.34-19.56-12.22-12.76-18.67-30.12-18.67-50.23s7.14-38.43,20.1-51.64c13-13.25,31.07-20.54,50.89-20.54,11.66,0,20.86,2.16,33.79,8.09.11-.84.18-1.52.18-1.91,0-15.54-11.61-26.82-27.61-26.82-11.84,0-26.74,3.88-40.87,10.65-1.11.53-2.29.79-3.45.79-2.91,0-5.71-1.59-7.12-4.35l-11.28-21.99c-1-1.94-1.16-4.21-.44-6.27s2.25-3.74,4.23-4.65c23.52-10.76,42.19-15.55,60.52-15.55,22.49,0,43.23,8.53,55.48,22.83.08.09.15.18.23.28,9.4,12.01,12.89,26.07,12.89,51.86v4.77l-.4,46.54v9.52c0,17.39,2.98,36.44,7.59,48.52.79,2.06.69,4.35-.27,6.34-.96,1.98-2.7,3.48-4.8,4.15l-24.93,7.83c-.8.25-1.6.37-2.4.37-3.21,0-6.21-1.94-7.44-5.07-1.34-3.4-2.5-7.9-3.39-13.03-12.63,13.66-25.59,19.11-44.48,19.11ZM750.8,189.44c-18.69,0-32.78,13.24-32.78,30.79s14.17,31.59,31.59,31.59c18.61,0,33.18-13.7,33.18-31.19,0-18.37-13.15-31.19-31.99-31.19Z"/>
      <path class="cls-1" d="M998.15,285.26c-2.28,0-4.45-.97-5.96-2.67-1.52-1.7-2.24-3.96-1.99-6.23,1.31-11.67,1.31-17.69,1.31-56.91,0-.44.04-.88.11-1.31l.29-1.73-.4-43.87c0-15.18-1.22-23.09-4.34-28.3-.02-.03-.03-.06-.05-.09-4.95-8.49-14.82-13.57-26.4-13.57-9.88,0-21.54,2.89-30.86,7.6l-1.52,41.47c0,.55,0,2.8,0,2.8l-.4,35.81c0,32.31.29,48.15,1.07,58.37.17,2.22-.59,4.41-2.11,6.05-1.51,1.63-3.64,2.56-5.87,2.56h-33.79c-2.19,0-4.29-.9-5.8-2.49-1.51-1.59-2.3-3.73-2.19-5.92.15-2.89.3-5.43.44-7.91v-.22c.18-2.79.34-5.56.5-8.8l.4-12.74s.75-27.2.79-29.03v-3.47l.4-52.5c0-7.16-.21-31.6-2.86-43.17-.79-3.46.79-7.03,3.88-8.77,24.19-13.57,61.44-23.8,86.66-23.8s48.68,12.29,59.84,31.3c5.1,8.74,10.01,30.92,9.56,56.44,0,.03-.76,61.21-.79,64.02.29,21.18.59,31.26,1.11,38.49.16,2.22-.61,4.4-2.12,6.03-1.51,1.63-3.64,2.55-5.86,2.55h-33.05Z"/>
      <path class="cls-1" d="M1144.8,290.82c-19.37,0-36.08-6.76-48.34-19.56-12.22-12.76-18.67-30.12-18.67-50.23s7.14-38.43,20.1-51.64c13-13.25,31.07-20.54,50.89-20.54,11.66,0,20.86,2.16,33.79,8.09.11-.84.18-1.52.18-1.91,0-15.54-11.61-26.82-27.61-26.82-11.84,0-26.74,3.88-40.87,10.65-1.11.53-2.29.79-3.45.79-2.91,0-5.71-1.59-7.12-4.35l-11.28-21.99c-1-1.94-1.16-4.21-.44-6.27s2.25-3.74,4.23-4.65c23.52-10.76,42.19-15.55,60.52-15.55,22.49,0,43.23,8.53,55.48,22.83.08.09.15.18.23.28,9.4,12.01,12.89,26.07,12.89,51.86v4.77l-.4,46.54v9.52c0,17.39,2.98,36.44,7.59,48.52.79,2.06.69,4.35-.27,6.34-.96,1.98-2.7,3.48-4.8,4.15l-24.93,7.83c-.8.25-1.6.37-2.4.37-3.21,0-6.21-1.94-7.44-5.07-1.34-3.4-2.5-7.9-3.39-13.03-12.63,13.66-25.59,19.11-44.48,19.11ZM1152.35,189.44c-18.69,0-32.78,13.24-32.78,30.79s14.17,31.59,31.59,31.59c18.61,0,33.18-13.7,33.18-31.19,0-18.37-13.15-31.19-31.99-31.19Z"/>
      <path class="cls-1" d="M1496.51,285.26c-2.22,0-4.34-.92-5.85-2.54-1.51-1.62-2.28-3.8-2.13-6.01.77-11.02,1.55-29.45,1.55-43.35,0-.04.79-60.39.79-60.39,0-.08,0-.17,0-.25.39-8.71-.87-18.35-2.29-24.07-2.91-9.94-12.95-17.65-22.94-17.65-8.93,0-21.98,4.39-31.6,10.55l-.78,97.67c0,.14,0,.27-.01.41l-.39,6.55c0,5.09.27,21.47.58,30.83.07,2.17-.74,4.27-2.25,5.83s-3.58,2.44-5.75,2.44h-32.6c-2.16,0-4.22-.87-5.73-2.41-1.51-1.54-2.33-3.63-2.27-5.78,0,0,2.57-104.69,2.66-108.21v-2.69c0-35.96-21.08-35.96-28.01-35.96-9.72,0-11.18.19-29.61,8.12l-.39,96.24c0,.57,0,.94.14,1.48.17.66.26,1.33.26,2.01v22.74c0,3.8.21,8.11.78,15.89.16,2.22-.61,4.4-2.12,6.03-1.51,1.63-3.64,2.55-5.86,2.55h-32.46c-2.22,0-4.34-.92-5.85-2.55-1.51-1.62-2.28-3.81-2.13-6.02,1-14.16,1.93-46.24,2.27-63.2,0-1.84,0-37.79,0-37.79,0-25.81-1.18-36.49-4.51-53.64-.59-3.05.63-6.17,3.15-7.99,20.64-15.02,57.2-27.25,81.5-27.25,16.09,0,29.12,5.05,47.56,18.54,25.93-14.01,40.55-18.54,59.39-18.54,21.49,0,37.98,6.72,49.02,19.96,10.88,13.06,16.4,32.5,16.4,57.78l.38,112.66c0,2.13-.83,4.17-2.33,5.67s-3.54,2.35-5.67,2.35h-32.9Z"/>
      <path class="cls-1" d="M1601.26,285.26c-2.25,0-4.4-.95-5.91-2.61s-2.26-3.89-2.05-6.13c.38-4.15.55-8.71.55-15.25-.27-4.93-.17-9.36-.08-13.64.04-1.94.08-3.78.08-5.53l-.8-101.36c-.31-25.03-.38-30.25-.95-36.03-.22-2.24.5-4.46,2-6.14,1.5-1.67,3.64-2.64,5.88-2.66,0,0,33.08-.3,33.1-.3,2.23,0,4.35.93,5.87,2.56,1.53,1.65,2.3,3.87,2.11,6.12-.92,10.86-1.53,25.52-1.85,44.82l-1.15,128.21c-.04,4.39-3.61,7.93-8,7.93h-28.8ZM1615.93,74.14c-15.85,0-29.24-13.57-29.24-29.64s13.02-30.04,29.64-30.04,30.04,13.19,30.04,30.04-13.37,29.64-30.43,29.64Z"/>
    </g>
  </g>
</svg>